<svg width="45" height="41" viewBox="0 0 45 41" fill="none" xmlns="http://www.w3.org/2000/svg">
<g clip-path="url(#clip0_116_1252)">
<path d="M32.2707 26.8667C34.2646 24.9836 36.2162 23.1287 38.1535 21.288C38.8465 20.6367 39.5394 19.9712 40.2323 19.3198C41.3495 18.2721 42.9475 18.2721 43.9939 19.3057C45.0404 20.3393 45.0545 21.9393 44.0081 23.0579C40.996 26.2862 37.9838 29.5145 34.9576 32.7287C33.2465 34.5411 31.1252 35.419 28.6222 35.419C24.1677 35.4048 19.7131 35.419 15.2586 35.419C15.0606 35.419 14.8768 35.419 14.6081 35.419C15.1172 36.5234 14.6505 37.3446 13.9434 38.1234C13.5333 38.5623 13.1657 39.0437 12.7838 39.4968C11.9212 40.5163 10.8606 40.6296 9.82828 39.7659C7.12727 37.5287 4.42626 35.2632 1.73939 33.0119C1.4 32.7287 1.06061 32.4597 0.721211 32.1623C-0.113132 31.4402 -0.240405 30.3358 0.452524 29.4721C1.01818 28.7499 1.61212 28.0561 2.2202 27.3623C2.92727 26.5552 4.0303 26.442 4.87879 27.1358C5.20404 27.4048 5.33131 27.334 5.55757 27.0367C7.50909 24.5588 9.91313 22.7747 13.0808 22.1942C15.7394 21.7128 18.2424 22.265 20.5192 23.596C22.0182 24.4738 23.5455 24.842 25.2424 24.7429C26.5293 24.6721 27.8162 24.757 29.1172 24.7145C30.6444 24.6862 31.7192 25.3092 32.2707 26.8667ZM21.4808 34.0597C23.8424 34.0597 26.2182 34.0597 28.5798 34.0597C30.7576 34.0597 32.596 33.2668 34.0808 31.6668C36.7111 28.8491 39.3414 26.0455 41.9717 23.242C42.3535 22.8314 42.7636 22.4349 43.1172 21.996C43.4707 21.5712 43.499 20.9623 43.2303 20.5092C42.9475 20.042 42.4242 19.8154 41.8586 19.9145C41.4909 19.9712 41.2364 20.226 40.9818 20.4667C37.8707 23.426 34.7455 26.3712 31.6485 29.3305C30.9556 29.996 30.1778 30.3075 29.2162 30.2933C28.1697 30.265 27.1374 30.2933 26.0909 30.2933C25.3556 30.2933 24.6061 30.3075 23.8707 30.2933C23.4465 30.2933 23.1636 30.0809 23.1354 29.6278C23.1071 29.203 23.3899 28.9482 23.8848 28.934C24.0121 28.934 24.1252 28.934 24.2525 28.934C25.9778 28.934 27.7172 28.934 29.4424 28.934C30.1636 28.934 30.6727 28.58 30.8707 27.9853C31.2101 27.0083 30.5172 26.1305 29.3576 26.1163C27.604 26.1021 25.8646 26.088 24.1111 26.1163C22.796 26.1446 21.5939 25.8898 20.505 25.1393C20.1657 24.8986 19.7697 24.7287 19.3879 24.5446C17.3798 23.596 15.2869 23.1287 13.0667 23.596C10.2667 24.1906 8.18788 25.8614 6.46263 28.0561C6.22222 28.3535 6.43434 28.4384 6.60404 28.58C8.68283 30.3075 10.7475 32.0349 12.8121 33.7765C13.0808 34.003 13.3354 34.0738 13.6747 34.0738C16.2909 34.0597 18.8788 34.0597 21.4808 34.0597ZM1.38586 30.6756C1.38586 30.888 1.48485 31.0437 1.65454 31.1712C4.69495 33.7057 7.72121 36.226 10.7616 38.7606C11.101 39.0437 11.398 39.0296 11.6808 38.7039C12.2323 38.0526 12.7697 37.4013 13.3071 36.7499C13.5899 36.4101 13.5333 36.1128 13.2081 35.8296C12.9111 35.5747 12.6141 35.334 12.3172 35.0791C9.61616 32.8278 6.92929 30.5765 4.22828 28.3252C3.69091 27.8721 3.50707 27.9004 3.05454 28.4384C2.57374 29.0048 2.10707 29.5712 1.62626 30.1375C1.49899 30.3216 1.37172 30.4632 1.38586 30.6756Z" fill="#F7F7F3"/>
<path d="M31.1678 0.332274C31.9456 0.332274 32.7233 0.332274 33.5011 0.332274C34.392 0.332274 34.5759 0.516344 34.5759 1.42254C34.5759 2.64024 34.5759 3.85794 34.5759 5.07564C34.5759 5.35882 34.5759 5.48626 34.9577 5.44378C36.2304 5.30219 37.2627 5.7836 37.9415 6.84555C38.6345 7.9075 38.6486 9.0544 37.9981 10.1447C37.3476 11.2349 36.3435 11.773 35.0708 11.6455C34.6041 11.6031 34.5617 11.7588 34.5759 12.1411C34.59 13.373 34.59 14.619 34.5759 15.8509C34.5759 16.5447 34.3496 16.7571 33.6567 16.7712C32.3839 16.7712 31.1112 16.7712 29.8385 16.7712C29.5415 16.7712 29.4143 16.7854 29.4567 17.1677C29.6688 19.0225 28.2405 20.6367 26.388 20.6509C24.5072 20.665 23.0648 19.15 23.2203 17.2668C23.2627 16.7995 23.093 16.7571 22.7112 16.7571C21.5092 16.7712 20.3072 16.7712 19.1052 16.7571C18.2708 16.7571 18.1011 16.6013 18.1011 15.7659C18.1011 14.534 18.087 13.288 18.1011 12.0562C18.1011 11.7447 18.087 11.5889 17.6769 11.6314C15.7536 11.8013 14.184 10.3995 14.1981 8.51635C14.1981 6.619 15.7819 5.23139 17.7476 5.42962C18.1011 5.4721 18.0728 5.30219 18.0728 5.07564C18.0728 3.8013 18.0728 2.52696 18.0728 1.26679C18.0728 0.502185 18.285 0.303955 19.0486 0.303955C20.6607 0.303955 22.2587 0.303955 23.8708 0.303955C24.7617 0.303955 25.0304 0.700415 24.6769 1.49334C24.3375 2.28626 24.5213 3.13581 25.1718 3.64555C25.8082 4.15528 26.7415 4.15528 27.3779 3.65971C28.0284 3.14997 28.2405 2.31457 27.9011 1.52165C27.5476 0.672097 27.788 0.303955 28.7355 0.303955C29.5839 0.332274 30.3759 0.332274 31.1678 0.332274ZM33.2183 4.2544C33.2183 3.53227 33.2041 2.81015 33.2183 2.08803C33.2324 1.80484 33.1617 1.69157 32.8506 1.69157C31.8466 1.70573 30.8425 1.70573 29.8244 1.69157C29.5132 1.69157 29.4567 1.76236 29.4708 2.07387C29.5557 3.97121 28.1557 5.44378 26.3173 5.42962C24.493 5.41546 23.1355 3.95705 23.2345 2.07387C23.2486 1.76236 23.1779 1.69157 22.8809 1.69157C21.9052 1.70573 20.9435 1.71988 19.9678 1.69157C19.586 1.67741 19.4587 1.76236 19.4587 2.17298C19.487 3.53227 19.4728 4.89157 19.4728 6.25086C19.4728 7.18537 19.0627 7.42608 18.2425 7.0013C17.4365 6.57652 16.5314 6.74643 15.9941 7.42608C15.4708 8.07741 15.4708 9.02608 16.0082 9.67741C16.5597 10.3571 17.4506 10.527 18.2567 10.1163C19.0769 9.69157 19.5011 9.94643 19.5011 10.8526C19.5011 12.1978 19.5153 13.5287 19.487 14.8739C19.4728 15.2986 19.5718 15.4544 20.0244 15.4402C21.3678 15.4119 22.7112 15.4261 24.0547 15.4261C24.9738 15.4261 25.2284 15.8367 24.8042 16.6579C24.394 17.465 24.5637 18.3571 25.2425 18.8951C25.893 19.419 26.8547 19.419 27.491 18.8951C28.1557 18.3429 28.3254 17.4509 27.9153 16.6438C27.491 15.8225 27.7456 15.4261 28.6789 15.4119C30.0223 15.4119 31.3658 15.3836 32.7092 15.4261C33.1759 15.4402 33.2607 15.2845 33.2466 14.8597C33.2183 13.5429 33.2324 12.2119 33.2324 10.8951C33.2324 9.91812 33.6284 9.67741 34.5193 10.1163C35.3395 10.527 36.3153 10.2863 36.8102 9.53582C37.2769 8.84201 37.2062 7.94997 36.6547 7.34113C36.0749 6.70396 35.2547 6.57652 34.4345 7.01546C33.685 7.41192 33.2324 7.14289 33.2324 6.3075C33.2183 5.62785 33.2183 4.9482 33.2183 4.2544Z" fill="#F7F7F3"/>
</g>
<defs>
<clipPath id="clip0_116_1252">
<rect width="44.8" height="40" fill="white" transform="translate(0 0.332275)"/>
</clipPath>
</defs>
</svg>
