<svg width="18" height="19" viewBox="0 0 18 19" fill="none" xmlns="http://www.w3.org/2000/svg">
<path d="M9 0.332275C6.6132 0.332275 4.3242 1.28072 2.636 2.96828C0.9485 4.65655 0 6.94567 0 9.33227C0 11.7189 0.94844 14.0081 2.636 15.6963C4.32428 17.3838 6.6134 18.3323 9 18.3323C11.3866 18.3323 13.6758 17.3838 15.364 15.6963C17.0515 14.008 18 11.7189 18 9.33227C17.9969 6.94627 17.0484 4.65887 15.361 2.97128C13.6736 1.28368 11.386 0.335275 9 0.332275ZM13.8532 7.68547L9.3532 12.1855C9.15867 12.3808 8.84148 12.3808 8.64696 12.1855L4.14696 7.68547C3.95712 7.48938 3.95946 7.17765 4.15243 6.98469C4.3454 6.79173 4.65711 6.78938 4.85321 6.97923L9.00001 11.1252L13.1468 6.97843V6.97921C13.3429 6.78936 13.6546 6.79171 13.8476 6.98468C14.0406 7.17764 14.0429 7.48936 13.8531 7.68546L13.8532 7.68547Z" fill="#A3B18A"/>
</svg>
