<svg width="18" height="19" viewBox="0 0 18 19" fill="none" xmlns="http://www.w3.org/2000/svg">
<path d="M9 18.3323C11.3868 18.3323 13.6758 17.3838 15.364 15.6963C17.0515 14.008 18 11.7189 18 9.33228C18 6.94568 17.0516 4.65648 15.364 2.96828C13.6757 1.28078 11.3866 0.332277 9 0.332277C6.6134 0.332277 4.3242 1.28072 2.636 2.96828C0.948502 4.65656 1.90735e-06 6.94568 1.90735e-06 9.33228C0.00312805 11.7183 0.951563 14.0057 2.639 15.6933C4.32644 17.3809 6.614 18.3293 9 18.3323ZM4.1468 10.9791L8.6468 6.47908C8.84133 6.28376 9.15852 6.28376 9.35304 6.47908L13.853 10.9791C14.0429 11.1752 14.0405 11.4869 13.8476 11.6799C13.6546 11.8728 13.3429 11.8752 13.1468 11.6853L8.99999 7.53933L4.85319 11.6861V11.6853C4.6571 11.8752 4.34537 11.8728 4.15241 11.6799C3.95944 11.4869 3.9571 11.1752 4.14694 10.9791L4.1468 10.9791Z" fill="#344E41"/>
</svg>
