<svg width="22" height="23" viewBox="0 0 22 23" fill="none" xmlns="http://www.w3.org/2000/svg">
<path opacity="0.8" d="M4.01707 0.332275C1.79179 0.332275 0 2.12407 0 4.34934V18.3152C0 20.5405 1.79179 22.3323 4.01707 22.3323H11.5865V13.7317H9.3122V10.6352H11.5865V7.98966C11.5865 5.91121 12.9302 4.00284 16.0256 4.00284C17.2789 4.00284 18.2057 4.12316 18.2057 4.12316L18.1328 7.0148C18.1328 7.0148 17.1876 7.00587 16.1562 7.00587C15.04 7.00587 14.861 7.52018 14.861 8.374V10.6352H18.2215L18.0751 13.7317H14.861V22.3323H17.9829C20.2082 22.3323 22 20.5405 22 18.3153V4.34937C22 2.12409 20.2082 0.332297 17.9829 0.332297H4.01705L4.01707 0.332275Z" fill="#F7F7F3"/>
</svg>
