<svg width="40" height="41" viewBox="0 0 40 41" fill="none" xmlns="http://www.w3.org/2000/svg">
<g clip-path="url(#clip0_116_1259)">
<path d="M0 12.9149C0.146879 12.8562 0.0881273 12.7093 0.117503 12.6114C0.724602 10.1536 2.25214 8.64564 4.71971 8.06792C4.73929 8.05813 4.75887 8.04833 4.81763 8.01896C4.46512 7.49999 4.13219 6.97122 4.04406 6.34454C3.85802 4.94429 3.76989 3.55384 4.54345 2.25151C5.71848 0.253963 8.62668 -0.284593 10.4284 1.19399C11.4859 2.05568 12.0049 3.16216 12.0049 4.52324C12.0049 5.47306 12.0245 6.42287 11.5545 7.29436C11.4272 7.52936 11.2803 7.76437 11.1236 8.02875C11.3488 8.09729 11.5643 8.14625 11.7797 8.2148C14.2375 8.95898 15.8825 11.1328 15.9315 13.6983C15.9412 14.2564 15.9412 14.8146 15.9315 15.3727C15.9217 15.921 15.6377 16.2148 15.0991 16.254C14.9914 16.2638 14.8935 16.254 14.7858 16.254C10.2424 16.254 5.6989 16.254 1.15545 16.2638C0.665851 16.2638 0.264382 16.156 0 15.7252C0 14.795 0 13.8549 0 12.9149ZM7.93146 14.7068C9.7038 14.7068 11.4663 14.7166 13.2387 14.7068C13.6108 14.7068 14.1297 14.8831 14.3158 14.6383C14.5018 14.3837 14.3843 13.8843 14.3647 13.5024C14.257 11.4265 12.5043 9.64442 10.4284 9.57587C8.81273 9.52691 7.19706 9.52691 5.59119 9.57587C4.08323 9.61504 2.96695 10.3886 2.16401 11.6322C1.63525 12.4645 1.53733 13.4045 1.55692 14.3641C1.55692 14.6481 1.62546 14.7362 1.91922 14.7264C3.91677 14.697 5.92411 14.7068 7.93146 14.7068ZM10.448 5.0618C10.448 4.79742 10.448 4.64074 10.448 4.48407C10.4088 3.02508 9.42962 1.96755 8.05875 1.9088C6.82497 1.85984 5.5814 2.80965 5.51285 4.26865C5.49327 4.74846 5.47368 5.22826 5.53244 5.70806C5.64015 6.70684 6.15912 7.41186 7.07956 7.77416C8.01958 8.14625 8.89107 7.97 9.64504 7.29436C10.3403 6.66767 10.4871 5.84515 10.448 5.0618Z" fill="#F7F7F3"/>
<path d="M3.40678e-06 37.0617C0.13709 36.6113 0.235009 36.1413 0.421056 35.7104C1.20441 33.85 2.57528 32.6651 4.55325 32.1951C4.64137 32.1755 4.71971 32.1462 4.82742 32.1168C3.75031 30.697 3.7601 29.0911 4.07344 27.4852C4.37699 25.9283 5.83599 24.6749 7.38311 24.4791C9.0967 24.2637 10.6634 25.0666 11.4859 26.5158C12.0539 27.5244 12.0245 28.6113 11.9853 29.6982C11.9559 30.5795 11.672 31.3726 11.0845 32.107C11.3293 32.1755 11.5447 32.2245 11.7601 32.293C14.2179 33.0274 15.8727 35.211 15.9217 37.7667C15.9315 38.2759 15.9021 38.7851 15.9315 39.2845C15.951 39.7839 15.7846 40.156 15.3048 40.342C10.3599 40.342 5.41493 40.342 0.460224 40.342C0.303553 40.1853 0.146882 40.0287 -0.00978851 39.872C3.40678e-06 38.932 3.40678e-06 37.9919 3.40678e-06 37.0617ZM7.93146 38.7753C9.7038 38.7753 11.4663 38.7753 13.2387 38.7753C13.6108 38.7753 14.1395 38.9515 14.3158 38.7067C14.5018 38.4522 14.3843 37.9626 14.3647 37.5709C14.2472 35.4558 12.4259 33.6639 10.3109 33.6345C8.7344 33.6052 7.1579 33.6052 5.59119 33.6345C4.41616 33.6541 3.44676 34.1829 2.65361 35.0446C1.77234 36.014 1.51775 37.1694 1.55692 38.4326C1.56671 38.7361 1.64505 38.7851 1.92901 38.7851C3.92656 38.7655 5.92411 38.7753 7.93146 38.7753ZM10.4382 29.1303C10.4382 28.8561 10.4382 28.6798 10.4382 28.4938C10.4382 28.3861 10.4186 28.2881 10.399 28.1804C10.2717 26.976 9.37087 26.1241 8.09792 25.987C7.05998 25.8793 5.95349 26.6333 5.63036 27.6908C5.41493 28.3959 5.4541 29.1303 5.53244 29.8549C5.63036 30.8047 6.15912 31.4705 7.02081 31.8328C7.89229 32.1951 8.7246 32.0776 9.47858 31.4999C10.3011 30.883 10.4969 30.0017 10.4382 29.1303Z" fill="#F7F7F3"/>
<path d="M24.5288 40.342C24.0783 40.0091 24.0392 39.539 24.049 39.0299C24.0686 38.08 23.9902 37.1204 24.2938 36.2098C24.989 34.0947 26.4186 32.7434 28.5826 32.2049C28.6708 32.1853 28.7589 32.1559 28.8764 32.1168C28.5043 31.5978 28.1812 31.069 28.093 30.4423C27.907 29.0715 27.8189 27.7104 28.5435 26.4179C29.6891 24.3909 32.5679 23.7936 34.399 25.233C35.3978 26.0164 35.9755 27.0152 36.0245 28.2979C36.0734 29.3652 36.1126 30.4325 35.5839 31.4215C35.4566 31.6565 35.2999 31.8818 35.1432 32.1363C36.2595 32.3616 37.2485 32.8218 38.0808 33.5855C39.2852 34.7018 39.9119 36.0923 39.9608 37.7275C39.9804 38.2367 39.951 38.7459 39.9706 39.2551C40 39.774 39.8433 40.1559 39.3439 40.3518C34.4186 40.342 29.4737 40.342 24.5288 40.342ZM32.0196 38.7753C33.7919 38.7753 35.5545 38.7753 37.3268 38.7753C37.6891 38.7753 38.1885 38.9417 38.3648 38.7067C38.5508 38.4619 38.4333 37.9821 38.4137 37.61C38.3158 35.5244 36.5239 33.6835 34.4774 33.6345C32.8421 33.5953 31.1971 33.5953 29.5618 33.6345C28.4162 33.6639 27.4761 34.1926 26.7026 35.0348C25.8213 36.0042 25.5667 37.1596 25.6059 38.4228C25.6157 38.7067 25.6744 38.7851 25.9682 38.7851C27.9853 38.7655 30.0025 38.7753 32.0196 38.7753ZM29.5324 29.0225C29.552 29.2967 29.5618 29.5709 29.5912 29.8352C29.7185 31.0494 30.6193 31.9111 31.8825 32.0384C32.9596 32.1461 34.0563 31.3824 34.3794 30.2661C34.5753 29.5807 34.5361 28.8756 34.4578 28.1804C34.3599 27.2306 33.8409 26.5647 32.9792 26.1926C32.0979 25.8206 31.246 25.9478 30.4921 26.5452C29.6793 27.1718 29.5031 28.0531 29.5324 29.0225Z" fill="#F7F7F3"/>
<path d="M28.8862 8.0287C27.8091 6.58928 27.8189 4.9932 28.1322 3.39712C28.4553 1.77166 29.885 0.586835 31.5887 0.351829C33.1163 0.146199 34.7417 1.02747 35.5349 2.41792C36.1028 3.4167 36.0734 4.48402 36.0441 5.57092C36.0147 6.46199 35.7307 7.27472 35.153 8.0189C35.4174 8.09724 35.6524 8.15599 35.8776 8.22453C38.2668 8.94914 39.9217 11.1229 39.9902 13.6199C40 14.1878 40 14.7655 39.9902 15.3335C39.9804 15.9406 39.6867 16.2343 39.0796 16.2539C38.7271 16.2637 38.3745 16.2539 38.022 16.2539C33.7528 16.2539 29.4835 16.2539 25.2142 16.2539C24.3036 16.2539 24.0588 16.0189 24.0588 15.0985C24.0685 14.1682 23.9804 13.2184 24.2448 12.3078C24.8813 10.1242 26.3011 8.71413 28.5043 8.12661C28.6218 8.10703 28.7295 8.07765 28.8862 8.0287ZM32.0196 14.7068C33.7919 14.7068 35.5545 14.7068 37.3268 14.7068C37.6891 14.7068 38.1885 14.8732 38.3648 14.6382C38.5508 14.3934 38.4333 13.9136 38.4235 13.5415C38.3256 11.4265 36.5728 9.63457 34.4578 9.56603C32.8029 9.51707 31.1481 9.52686 29.5031 9.57582C28.3672 9.6052 27.4468 10.1535 26.6928 10.9956C25.8115 11.965 25.5765 13.1303 25.6157 14.3934C25.6255 14.6774 25.7136 14.7264 25.9682 14.7264C27.9853 14.697 30.0025 14.7068 32.0196 14.7068ZM34.5165 4.94424C34.4969 4.67007 34.4872 4.39589 34.4676 4.13151C34.3403 2.85856 33.2925 1.90874 32.0294 1.90874C30.7662 1.90874 29.7381 2.84877 29.5912 4.13151C29.5422 4.58194 29.5422 5.04216 29.5618 5.49259C29.6108 6.55991 30.1004 7.36284 31.0991 7.77411C32.049 8.15599 32.94 7.98953 33.7038 7.30409C34.399 6.66762 34.5361 5.8353 34.5165 4.94424Z" fill="#F7F7F3"/>
<path d="M20.0049 35.26C19.3684 35.26 18.732 35.26 18.0955 35.26C17.5178 35.26 17.175 34.9565 17.175 34.4767C17.175 33.9969 17.5178 33.7031 18.0955 33.7031C19.3586 33.7031 20.6218 33.7031 21.885 33.7031C22.4725 33.7031 22.8152 33.9871 22.825 34.4669C22.8348 34.9663 22.492 35.26 21.885 35.26C21.2583 35.2698 20.6316 35.26 20.0049 35.26Z" fill="#F7F7F3"/>
<path d="M22.1982 6.99077C21.5617 6.99077 20.9252 6.99077 20.2887 6.99077C19.7502 6.99077 19.3977 6.68722 19.3781 6.23679C19.3683 5.77657 19.7306 5.43386 20.2887 5.43386C21.5519 5.42407 22.8053 5.42407 24.0684 5.43386C24.6266 5.43386 24.9987 5.75699 24.9987 6.21721C24.9987 6.68722 24.6364 6.99077 24.0684 6.99077C23.4417 6.99077 22.8151 6.99077 22.1982 6.99077Z" fill="#F7F7F3"/>
<path d="M6.63893 20.3371C6.63893 20.9736 6.64872 21.6101 6.63893 22.2465C6.62914 22.7753 6.306 23.1376 5.85557 23.1278C5.41494 23.118 5.08201 22.7753 5.08201 22.2661C5.07222 20.9638 5.07222 19.6713 5.08201 18.3689C5.08201 17.8402 5.42473 17.4974 5.88495 17.517C6.33538 17.5268 6.62914 17.8597 6.63893 18.3885C6.64872 19.0348 6.63893 19.6908 6.63893 20.3371Z" fill="#F7F7F3"/>
<path d="M34.918 20.3175C34.918 20.954 34.918 21.5905 34.918 22.2269C34.9082 22.7655 34.6047 23.118 34.1542 23.1278C33.694 23.1376 33.3611 22.7655 33.3611 22.2171C33.3513 20.954 33.3513 19.7006 33.3611 18.4375C33.3611 17.8695 33.6744 17.517 34.1444 17.5268C34.6242 17.5268 34.918 17.8695 34.918 18.4472C34.9278 19.0739 34.918 19.6908 34.918 20.3175Z" fill="#F7F7F3"/>
<path d="M16.6952 5.43379C17.0967 5.424 17.4688 5.77651 17.4884 6.18777C17.508 6.58924 17.1652 6.96133 16.754 6.98092C16.3231 7.0005 15.9413 6.64799 15.9413 6.21715C15.9315 5.81568 16.2938 5.44358 16.6952 5.43379Z" fill="#F7F7F3"/>
</g>
<defs>
<clipPath id="clip0_116_1259">
<rect width="40" height="40.0098" fill="white" transform="translate(0 0.332275)"/>
</clipPath>
</defs>
</svg>
