<svg width="40" height="41" viewBox="0 0 40 41" fill="none" xmlns="http://www.w3.org/2000/svg">
<g clip-path="url(#clip0_116_1240)">
<path d="M0 28.6926C0.303475 27.9094 0.881057 27.6353 1.71317 27.6549C3.30886 27.694 4.91434 27.6745 6.51982 27.6647C6.96035 27.6647 7.35193 27.7528 7.64562 28.0954C7.79246 28.2716 7.88057 28.1542 7.98825 28.0758C10.0538 26.627 12.3544 26.1473 14.8311 26.4214C15.7416 26.5193 16.5639 26.9011 17.2687 27.4787C18.2575 28.2912 19.3637 28.673 20.6559 28.6338C21.6251 28.6045 22.6138 28.5457 23.583 28.6828C25.1787 28.8982 26.4317 30.3372 26.4219 31.9133C26.4219 32.0014 26.4219 32.0993 26.4024 32.1874C26.324 32.6475 26.3828 32.7063 26.8429 32.5594C27.8806 32.2168 28.9085 31.8546 29.9364 31.4924C32.2663 30.6799 34.5864 29.8575 36.9163 29.045C38.1596 28.6045 39.2462 29.0058 39.7846 30.1023C40.3035 31.1595 39.9413 32.4126 38.884 33.0979C37.3568 34.0866 35.8199 35.0656 34.2927 36.0445C32.5502 37.1605 30.8076 38.2569 29.0749 39.3925C28.3798 39.8526 27.626 40.1463 26.8135 40.3421C21.3999 40.3421 15.9765 40.3421 10.5629 40.3421C10.5531 40.3225 10.5433 40.2834 10.5237 40.2834C9.56437 40.117 8.67352 39.8037 7.86099 39.2653C7.73373 39.1869 7.6652 39.2163 7.5673 39.3142C7.30299 39.5687 6.97014 39.6568 6.60793 39.6568C4.88497 39.6568 3.15223 39.6568 1.42927 39.6568C0.82232 39.6568 0.391581 39.3925 0.127264 38.8443C0.0978953 38.7856 0.107685 38.7171 0.0195791 38.6975C0 35.3592 0 32.021 0 28.6926ZM18.6588 38.9912C21.1356 38.9912 23.6025 38.9912 26.0793 38.9912C26.7548 38.9912 27.3911 38.8443 27.9687 38.4723C31.3461 36.3088 34.7332 34.1356 38.1106 31.9721C38.6393 31.6294 38.7959 31.1106 38.5512 30.6407C38.3162 30.2002 37.9246 30.0925 37.3079 30.3079C34.0773 31.4434 30.837 32.5692 27.6065 33.7048C27.1561 33.8614 26.7058 33.9398 26.2359 33.9398C24.7675 33.93 23.2893 33.9398 21.8209 33.9398C21.4586 33.9398 21.0964 33.9789 20.7342 34.0474C20.0098 34.1845 19.4126 34.5663 18.8155 34.9677C18.4728 35.2026 18.1008 35.1341 17.8855 34.8306C17.6701 34.5369 17.6995 34.1649 18.0127 33.93C18.8742 33.2545 19.8336 32.7846 20.9398 32.6769C22.1243 32.5594 23.3089 32.628 24.4934 32.628C24.8262 32.628 24.9437 32.4909 25.0122 32.1972C25.2276 31.2476 24.4347 30.161 23.4165 30.024C22.4082 29.8967 21.3901 29.9652 20.372 29.9652C18.9917 29.9652 17.7582 29.5834 16.6814 28.7122C15.7122 27.929 14.6158 27.5962 13.3823 27.6647C12.7558 27.7038 12.139 27.7724 11.5321 27.9192C10.2986 28.2227 9.12384 28.6534 8.2232 29.6324C8.05678 29.8184 7.97846 30.0044 7.97846 30.2589C7.98825 32.5497 7.99804 34.8404 7.96867 37.1311C7.95889 37.5913 8.1351 37.8654 8.46794 38.1003C8.57563 38.1688 8.68331 38.2472 8.79099 38.3157C9.76995 38.8835 10.8566 38.9912 11.953 38.9912C14.2046 39.0009 16.4366 38.9912 18.6588 38.9912ZM6.66667 33.6461C6.66667 32.2168 6.65688 30.7875 6.67646 29.3485C6.67646 29.0744 6.62751 28.9765 6.32403 28.9765C4.77729 28.9961 3.23054 28.9961 1.6838 28.9765C1.41948 28.9765 1.34117 29.0352 1.34117 29.3093C1.35095 32.1874 1.35095 35.0558 1.34117 37.9339C1.34117 38.2178 1.39011 38.3059 1.69359 38.3059C3.24033 38.2863 4.78708 38.2863 6.33382 38.3059C6.60793 38.3059 6.67646 38.2472 6.67646 37.9633C6.65688 36.534 6.66667 35.0949 6.66667 33.6461Z" fill="#F7F7F3"/>
<path d="M20.6657 23.7977C20.6657 23.2397 20.6559 22.6817 20.6657 22.1139C20.6755 21.8986 20.5972 21.7615 20.4307 21.6245C18.3064 19.8819 16.8869 17.6891 16.3191 14.9969C15.3793 10.5329 16.5541 6.66605 19.8629 3.5334C22.3103 1.21329 25.3059 0.195175 28.6735 0.351807C34.1165 0.596546 38.8155 4.7571 39.7749 10.1218C40.9202 16.5633 36.9848 22.5545 30.6021 24.0327C28.7616 24.4634 26.9114 24.434 25.0808 23.9544C24.7969 23.8858 24.5913 23.9054 24.3466 24.111C23.534 24.7865 22.7019 25.4228 21.8796 26.0787C21.6349 26.2745 21.3705 26.4017 21.0573 26.2549C20.744 26.1081 20.6657 25.834 20.6657 25.5109C20.6755 24.9431 20.6657 24.3655 20.6657 23.7977ZM22.0069 24.2676C22.6921 23.7292 23.3284 23.2495 23.9256 22.7405C24.2487 22.4664 24.5717 22.4174 24.9731 22.5349C27.1561 23.2006 29.3294 23.1125 31.4929 22.3978C35.5654 21.0469 38.5609 17.0234 38.6588 12.7258C38.7274 9.58333 37.6799 6.87163 35.4185 4.68857C32.9711 2.3195 29.9951 1.36013 26.6275 1.77129C24.141 2.07476 21.9971 3.15161 20.2937 5.00183C17.6603 7.86038 16.7792 11.228 17.6995 15.0067C18.277 17.3562 19.5693 19.275 21.488 20.7532C21.8698 21.0469 22.0166 21.3895 22.0069 21.8496C21.9873 22.6328 22.0069 23.4061 22.0069 24.2676Z" fill="#F7F7F3"/>
<path d="M3.99413 35.643C4.00391 36.015 3.71023 36.3087 3.34802 36.3185C2.99559 36.3283 2.67254 36.015 2.67254 35.6528C2.67254 35.3102 2.95644 35.0165 3.30886 35.0067C3.69065 34.9969 3.98434 35.271 3.99413 35.643Z" fill="#F7F7F3"/>
<path d="M30.0048 13.2544C30.0048 14.1648 30.0146 15.0753 29.995 15.9857C29.9852 16.25 30.0537 16.3577 30.3376 16.3283C30.5628 16.3087 30.8075 16.2892 31.0229 16.4262C31.2481 16.5731 31.3362 16.7982 31.3362 17.0625C31.3362 17.8946 31.346 18.7267 31.3362 19.5589C31.3264 20.0483 31.0816 20.3127 30.5922 20.3127C28.879 20.3224 27.156 20.3224 25.4429 20.3127C24.9436 20.3127 24.6989 20.0581 24.6891 19.5686C24.6793 18.7463 24.6793 17.924 24.6891 17.1115C24.6891 16.5633 24.9338 16.3381 25.482 16.3283C26.0204 16.3185 26.0204 16.3185 26.0204 15.7605C26.0204 15.1536 26.0107 14.5368 26.0204 13.9299C26.0204 13.7341 25.9715 13.646 25.7561 13.6656C25.5897 13.6754 25.4135 13.6656 25.2569 13.6362C24.9044 13.5775 24.6989 13.3621 24.6891 12.9999C24.6793 12.1188 24.6793 11.228 24.6891 10.3469C24.6989 9.92597 24.9436 9.69102 25.3841 9.66165C25.8149 9.64207 26.2456 9.65186 26.6763 9.65186C27.4791 9.65186 28.2916 9.65186 29.0944 9.65186C29.7796 9.65186 30.0146 9.88681 30.0146 10.5623C30.0048 11.4629 30.0048 12.3636 30.0048 13.2544ZM28.6734 14.1257C28.6734 13.1859 28.6636 12.2559 28.6832 11.3161C28.6832 11.0713 28.6343 10.9734 28.3699 10.9832C27.8805 11.0028 27.3812 10.993 26.8819 10.993C26.0107 10.993 26.04 10.993 26.0009 11.8545C25.9911 12.2461 26.0792 12.3636 26.4806 12.344C27.0484 12.3146 27.3322 12.5593 27.3322 13.0586C27.3518 14.3508 27.342 15.6333 27.3322 16.9255C27.3322 17.3464 27.1071 17.5814 26.7155 17.6597C26.4806 17.7086 26.1477 17.5324 26.0302 17.7576C25.9226 17.9632 26.0009 18.2666 26.0009 18.531C26.0009 18.5799 26.0107 18.6386 26.0009 18.6876C25.9617 18.9421 26.0498 19.0204 26.3141 19.0106C27.2539 18.9911 28.1839 19.0009 29.1237 19.0009C29.995 19.0009 29.9754 19.0009 30.0048 18.1492C30.0146 17.7674 29.9363 17.6401 29.5349 17.6597C28.9084 17.6988 28.6734 17.4247 28.6636 16.7884C28.6636 15.8976 28.6734 15.0165 28.6734 14.1257Z" fill="#F7F7F3"/>
<path d="M27.9491 8.31071C26.8331 8.28134 25.9814 7.38071 26.0108 6.25491C26.0401 5.18785 26.9506 4.31659 28.0078 4.32638C29.1043 4.33617 30.0147 5.26617 29.9951 6.3626C29.9755 7.45902 29.0651 8.34008 27.9491 8.31071ZM27.9883 6.97934C28.3505 6.97934 28.6637 6.67586 28.6637 6.31365C28.6539 5.98081 28.3407 5.66754 28.0078 5.65775C27.6554 5.64796 27.3324 5.97102 27.3421 6.33323C27.3519 6.69544 27.6358 6.96955 27.9883 6.97934Z" fill="#F7F7F3"/>
</g>
<defs>
<clipPath id="clip0_116_1240">
<rect width="40" height="40" fill="white" transform="translate(0 0.332275)"/>
</clipPath>
</defs>
</svg>
