<svg width="40" height="41" viewBox="0 0 40 41" fill="none" xmlns="http://www.w3.org/2000/svg">
<g clip-path="url(#clip0_116_1280)">
<path d="M18.645 23.3374C18.657 23.1687 18.5125 23.0965 18.4402 23.0122C17.4526 21.8438 17.2839 20.3744 17.9705 19.0134C18.0428 18.8809 18.115 18.7484 18.1632 18.6039C18.4523 17.9414 18.368 17.6523 17.7898 17.2067C17.4526 16.9538 17.1033 16.7249 16.7901 16.4479C16.0072 15.7493 15.6218 14.8941 15.8506 13.8342C16.0313 12.9911 15.7302 12.3648 15.0437 11.895C14.6221 11.606 14.1885 11.341 13.7549 11.076C11.9482 9.97995 11.4544 9.51021 10.3704 7.73966C9.94881 8.52256 9.67178 9.34159 9.46703 10.1847C9.44294 10.2811 9.41885 10.3895 9.39476 10.4858C9.26227 10.9315 8.91298 11.1603 8.52755 11.076C8.13008 10.9796 7.91328 10.6304 7.99759 10.1727C8.27461 8.72731 8.81662 7.37832 9.58747 6.13773C12.2734 1.81373 17.2719 -0.378377 22.2945 0.53701C27.1966 1.44035 31.1231 5.39097 32.0506 10.3654C33.3273 17.1706 28.6781 23.6987 21.8368 24.7345C15.3809 25.7102 9.17796 21.3982 7.99759 15.0748C7.90123 14.5448 8.0819 14.1835 8.50346 14.0751C8.92502 13.9667 9.28636 14.2437 9.4068 14.7857C10.0331 17.6162 11.5146 19.8565 13.8874 21.5186C15.2845 22.5063 16.8624 23.0363 18.5245 23.3494C18.5607 23.3735 18.6088 23.3494 18.645 23.3374ZM15.2002 10.2088C15.2123 10.2449 15.2364 10.2931 15.2845 10.257C15.2966 10.2449 15.2725 10.1847 15.2605 10.1486C14.8991 9.71497 14.5137 9.29341 14.1764 8.83572C13.8272 8.36598 13.6104 7.86011 13.7428 7.24583C13.9356 6.37862 14.5739 6.02933 15.3448 5.87275C16.224 5.69208 17.1153 5.57164 18.0066 5.41506C18.6209 5.30666 19.1147 4.9935 19.5363 4.53581C19.6688 4.39127 19.729 4.24674 19.5242 4.09016C18.8257 3.54815 18.1873 2.95797 18.392 1.91009C15.5977 2.39187 13.3574 3.68064 11.5869 5.82457C11.4303 6.01729 11.4062 6.18591 11.4664 6.40271C11.6832 7.23379 12.0807 7.95646 12.707 8.55869C13.4538 9.23319 14.321 9.73906 15.2002 10.2088ZM20.4878 23.3976C21.1141 23.4217 21.7766 23.3133 22.427 23.1567C26.8353 22.0968 30.0391 18.5798 30.7016 14.0871C30.8582 13.0272 30.7739 12.8827 29.7621 12.4009C29.6176 12.3286 29.5212 12.3527 29.3887 12.413C28.2084 12.979 27.5098 12.5454 27.4616 11.2326C27.4255 10.1004 27.3291 8.9923 27.0641 7.88419C26.8353 6.95676 26.9557 6.05342 27.6061 5.29461C27.7507 5.11395 27.7145 5.04168 27.57 4.89714C25.5465 2.93388 23.1256 1.886 20.3071 1.78964C20.1506 1.78964 19.9699 1.71738 19.9097 1.95827C19.8494 2.16303 19.7531 2.36778 19.9337 2.54845C20.0422 2.6689 20.1746 2.7773 20.3071 2.87366C21.2948 3.59633 21.4273 4.51172 20.6323 5.45119C19.9819 6.23409 19.1388 6.69178 18.1391 6.84836C17.296 6.98085 16.4408 7.07721 15.6098 7.29401C15.0677 7.43855 15.0075 7.58308 15.3568 8.02873C15.7422 8.51051 16.1638 8.95616 16.5854 9.40181C17.0431 9.89564 17.5971 10.0763 18.2596 9.89564C18.8257 9.73906 19.3556 9.82337 19.8735 10.0763C20.2469 10.257 20.6444 10.3774 21.078 10.3895C21.5598 10.4015 22.0295 10.5581 22.3908 10.9074C23.1617 11.6541 24.0289 12.2684 24.9443 12.8104C25.7633 13.2922 26.0885 14.0751 25.8838 15.0146C25.4742 16.8694 24.4625 18.3389 22.9931 19.5072C21.7163 20.531 20.6564 21.6752 20.4878 23.3976ZM19.3556 21.8318C19.5363 21.3139 19.741 20.8682 20.0301 20.4708C20.5962 19.712 21.2587 19.0375 22.0175 18.4473C23.1496 17.568 23.9325 16.4358 24.4143 15.0868C24.6311 14.4967 24.5107 14.1835 23.9687 13.8824C23.1376 13.4247 22.3668 12.8827 21.6923 12.2082C21.4875 12.0034 21.2707 11.8348 20.9575 11.8228C20.3433 11.8228 19.7772 11.6541 19.2352 11.3651C19.1027 11.2928 18.9581 11.2446 18.8016 11.2567C18.0668 11.341 17.3321 11.4976 16.5854 11.2567C17.1996 12.0396 17.4887 12.8947 17.2719 13.8463C17.0912 14.6532 17.4044 15.1832 18.0307 15.6048C18.1873 15.7132 18.3559 15.8216 18.5125 15.942C19.8133 16.8815 20.0662 17.8812 19.3917 19.3506C19.3315 19.4831 19.2472 19.6156 19.187 19.7481C18.8859 20.4587 18.922 21.1332 19.3556 21.8318ZM30.7257 11.3049C30.4607 9.40181 29.8223 7.73966 28.7142 6.24613C28.4733 6.58338 28.3288 6.90859 28.4131 7.26992C28.7022 8.49847 28.9069 9.72701 28.9069 11.0519C29.5694 10.7147 30.1355 10.8712 30.7257 11.3049Z" fill="#F7F7F3"/>
<path d="M12.201 40.2721C10.4546 40.2721 8.72016 40.2721 6.9737 40.2721C6.2992 40.2721 6.04627 40.0312 6.04627 39.3567C6.04627 37.9715 6.04627 36.5864 6.04627 35.2013C6.04627 34.5027 6.28716 34.2618 6.99779 34.2377C7.20255 34.2257 7.52775 34.3702 7.58797 34.1293C7.66024 33.8764 7.46753 33.6235 7.27481 33.4187C6.21489 32.3708 5.15497 31.335 4.09505 30.2871C3.26397 29.4681 2.4329 28.637 1.58978 27.818C0.855062 27.1073 0.457591 26.2642 0.337145 25.2525C-0.20486 20.8442 -0.0844145 16.4599 0.710527 12.0878C0.891195 11.0881 1.73431 10.6665 2.62561 11.1242C5.02248 12.3528 6.20285 15.0628 5.432 17.6403C5.28746 18.1462 5.26337 18.6039 5.50426 19.0736C5.58858 19.2302 5.66084 19.3988 5.70902 19.5674C5.87765 20.1215 6.11854 20.5551 6.76894 20.6515C7.11824 20.7117 7.39526 20.9887 7.66024 21.2416C8.53949 22.0848 9.43079 22.9158 10.31 23.759C10.5148 23.9637 10.7436 24.0601 11.0327 24.0721C13.9836 24.2889 16.4769 26.5172 16.9827 29.3958C17.1032 30.0944 17.0189 30.805 17.0309 31.5157C17.043 32.2986 17.043 33.0814 17.0309 33.8643C17.0309 34.1173 17.067 34.2257 17.3682 34.2257C18.1751 34.2257 18.3799 34.4545 18.3799 35.2374C18.3799 36.6105 18.3799 37.9715 18.3799 39.3446C18.3799 39.995 18.127 40.248 17.4766 40.248C15.7181 40.2721 13.9595 40.2721 12.201 40.2721ZM2.09565 12.5455C1.33684 16.8936 1.25253 20.9164 1.77045 25.1561C1.85476 25.8186 2.13179 26.3485 2.60152 26.8062C4.45639 28.625 6.31125 30.4557 8.16611 32.2624C8.64789 32.7322 8.9731 33.2742 9.05741 33.9366C9.0815 34.1895 9.17785 34.2498 9.41875 34.2498C11.37 34.2377 13.3212 34.2377 15.2724 34.2498C15.5856 34.2498 15.5976 34.1173 15.5976 33.8764C15.5856 32.5997 15.5976 31.3229 15.5856 30.0462C15.5856 29.8415 15.5615 29.6247 15.5133 29.4199C15.0556 27.3844 13.0923 25.674 11.0086 25.5416C10.31 25.4934 9.74395 25.2525 9.25012 24.7587C8.407 23.9276 7.52775 23.1206 6.67259 22.3016C6.33534 21.9764 5.94991 21.8318 5.48017 21.9282C5.09475 22.0005 4.91408 22.2293 4.93817 22.6268C4.96226 23.0122 5.15497 23.3013 5.39586 23.5783C6.40761 24.7105 7.4073 25.8547 8.407 26.9869C8.53949 27.1314 8.67198 27.276 8.79243 27.4325C9.11763 27.818 9.11763 28.2275 8.80447 28.5166C8.47927 28.8056 8.06975 28.7815 7.73251 28.4082C6.52805 27.0471 5.3236 25.6861 4.11914 24.3251C3.89029 24.0601 3.73371 23.759 3.62531 23.4217C3.30011 22.4702 3.51691 21.4705 4.23958 20.9767C4.58888 20.7358 4.57683 20.5431 4.40821 20.2299C3.87825 19.2061 3.74576 18.1944 4.083 17.026C4.61297 15.2434 3.6494 13.2441 2.09565 12.5455ZM12.2131 38.8267C13.6705 38.8267 15.1279 38.8267 16.5853 38.8267C16.8382 38.8267 16.9586 38.8026 16.9466 38.4895C16.9225 37.6584 16.9346 36.8394 16.9466 36.0083C16.9466 35.7674 16.8984 35.671 16.6334 35.671C13.7066 35.6831 10.7798 35.6831 7.85295 35.671C7.56388 35.671 7.50366 35.7674 7.50366 36.0324C7.51571 36.8273 7.52775 37.6222 7.50366 38.4292C7.49162 38.7424 7.58797 38.8267 7.90113 38.8267C9.32239 38.8147 10.7677 38.8267 12.2131 38.8267Z" fill="#F7F7F3"/>
<path d="M27.7747 40.272C26.0282 40.272 24.2938 40.272 22.5473 40.272C21.8728 40.272 21.6199 40.0311 21.6199 39.3567C21.6199 37.9715 21.6199 36.5864 21.6199 35.2013C21.6199 34.4906 21.8608 34.2257 22.5594 34.2498C22.9207 34.2618 22.9689 34.1293 22.9689 33.8162C22.9568 32.7081 23.0291 31.5879 22.9448 30.4798C22.7762 28.0107 24.8358 25.0236 27.7867 24.2769C28.0276 24.2166 28.2926 24.1082 28.5335 24.1323C29.2441 24.1805 29.7018 23.7951 30.1595 23.3253C30.8581 22.6268 31.5928 21.9643 32.3155 21.2657C32.7009 20.8923 33.1465 20.6033 33.6644 20.5069C33.8812 20.4708 33.9776 20.3624 34.0378 20.1817C34.086 20.0492 34.1221 19.9288 34.1944 19.8083C34.6401 18.9652 34.7244 18.1582 34.4835 17.1826C33.8812 14.7496 35.1941 12.1962 37.4464 11.1001C38.2775 10.7026 39.1327 11.1242 39.3013 12.0155C40.1203 16.5081 40.2287 21.0128 39.6506 25.5415C39.5302 26.4328 39.0965 27.1796 38.4461 27.8059C36.6395 29.5644 34.8448 31.347 33.0381 33.1176C32.9177 33.238 32.7972 33.3464 32.6888 33.4669C32.5082 33.6596 32.3275 33.9125 32.4118 34.1414C32.4841 34.3461 32.7852 34.2257 32.9779 34.2257C33.7126 34.2498 33.9535 34.4786 33.9535 35.2133C33.9535 36.5864 33.9535 37.9474 33.9535 39.3205C33.9535 40.0312 33.7126 40.272 33.014 40.272C31.2676 40.272 29.5211 40.272 27.7747 40.272ZM37.9041 12.5093C37.7476 12.6057 37.6271 12.6659 37.5187 12.7382C36.0734 13.7379 35.435 15.5445 35.9529 17.2308C36.2179 18.0739 36.2058 18.8809 35.8084 19.6758C35.7 19.9047 35.6277 20.1456 35.5073 20.3744C35.3989 20.5912 35.4109 20.7117 35.6518 20.8682C36.2299 21.2416 36.4949 21.8198 36.507 22.5184C36.519 23.2651 36.242 23.8914 35.7602 24.4455C34.8689 25.4572 33.9656 26.469 33.0743 27.4807C32.8213 27.7698 32.5563 28.0709 32.2914 28.36C31.93 28.7574 31.5205 28.8056 31.1953 28.5045C30.8701 28.2034 30.8821 27.7939 31.2314 27.3844C31.2917 27.3121 31.3519 27.2519 31.4121 27.1796C32.4479 26.0113 33.4838 24.843 34.5196 23.6746C34.7244 23.4458 34.9171 23.229 35.0014 22.9279C35.2062 22.2895 34.9171 21.892 34.2426 21.892C33.8812 21.892 33.5801 22.0607 33.3272 22.3015C32.46 23.1326 31.5687 23.9517 30.7135 24.7948C30.2558 25.2525 29.7259 25.5054 29.0755 25.5295C28.4371 25.5536 27.8228 25.7222 27.2688 26.0113C25.7632 26.7942 24.6551 27.9745 24.4624 29.6849C24.2938 31.1061 24.4263 32.5635 24.4142 34.0089C24.4142 34.1895 24.4744 34.2377 24.6431 34.2377C26.6545 34.2377 28.6659 34.2377 30.6774 34.2377C30.846 34.2377 30.9183 34.1895 30.9303 34.0209C31.0026 33.2139 31.4603 32.6117 32.0264 32.0697C33.8331 30.3112 35.6277 28.5286 37.4344 26.7701C37.856 26.3606 38.133 25.8788 38.2173 25.2886C38.7593 21.0369 38.6629 16.7972 37.9041 12.5093ZM27.7506 38.8267C29.208 38.8267 30.6653 38.8146 32.1227 38.8387C32.4479 38.8387 32.5202 38.7424 32.5202 38.4413C32.4961 37.6584 32.4961 36.8755 32.5202 36.0926C32.5323 35.7794 32.4479 35.6831 32.1227 35.6831C29.22 35.6951 26.3293 35.6951 23.4266 35.6831C23.1134 35.6831 23.0532 35.7915 23.0652 36.0685C23.0773 36.8634 23.0893 37.6584 23.0652 38.4654C23.0532 38.7544 23.1254 38.8508 23.4266 38.8387C24.8719 38.8146 26.3052 38.8267 27.7506 38.8267Z" fill="#F7F7F3"/>
<path d="M14.4896 19.6517C14.4655 19.9167 14.3451 20.1576 14.068 20.266C13.7549 20.3985 13.4658 20.3262 13.2008 20.0854C12.1168 19.0857 11.2737 17.9053 10.6956 16.5442C10.6233 16.3636 10.539 16.1829 10.5029 15.9902C10.4306 15.6168 10.5872 15.3398 10.9365 15.1953C11.2858 15.0507 11.5989 15.1591 11.7916 15.4723C11.9121 15.677 11.9843 15.9059 12.0807 16.1227C12.5745 17.1826 13.2249 18.1221 14.0801 18.917C14.3089 19.1218 14.4896 19.3265 14.4896 19.6517Z" fill="#F7F7F3"/>
<path d="M11.346 12.979C11.3701 13.2922 11.4062 13.4729 11.3942 13.6415C11.3701 14.039 11.081 14.328 10.7076 14.3401C10.3101 14.3401 10.0452 14.1474 9.98494 13.7499C9.92472 13.3765 9.91267 13.0031 9.91267 12.6297C9.91267 12.1961 10.2017 11.9071 10.5992 11.895C11.0208 11.883 11.3219 12.16 11.346 12.6177C11.358 12.7863 11.346 12.9429 11.346 12.979Z" fill="#F7F7F3"/>
<path d="M8.45528 11.8951C8.85275 11.8951 9.16591 12.1962 9.17796 12.5937C9.19 12.9911 8.84071 13.3404 8.44324 13.3404C8.05781 13.3284 7.73261 12.9911 7.74466 12.6057C7.74466 12.2082 8.05781 11.8951 8.45528 11.8951Z" fill="#F7F7F3"/>
</g>
<defs>
<clipPath id="clip0_116_1280">
<rect width="40" height="39.9398" fill="white" transform="translate(0 0.332275)"/>
</clipPath>
</defs>
</svg>
