<svg width="40" height="41" viewBox="0 0 40 41" fill="none" xmlns="http://www.w3.org/2000/svg">
<g clip-path="url(#clip0_116_1255)">
<path d="M0 31.6124C0.145333 31.6012 0.20123 31.467 0.290665 31.3776C2.69424 29.0187 5.09782 26.6487 7.5014 24.2898C10.0615 21.7521 13.0688 21.1372 16.4785 22.1769C16.5008 22.1881 16.5232 22.1881 16.5456 22.2105C18.2895 23.2278 20.2124 23.1607 22.1241 23.1383C23.0296 23.1272 23.9463 23.0489 24.8407 23.2613C26.3499 23.6191 27.2666 24.8488 27.1101 26.3357C26.9983 27.3642 26.0816 28.3256 24.9078 28.661C24.4606 28.784 24.0134 28.8287 23.5551 28.8287C22.1465 28.8287 20.7378 28.8287 19.3404 28.8287C18.7814 28.8287 18.5579 29.0746 18.569 29.6224C18.5802 29.969 18.7479 30.1814 19.0945 30.2373C19.2174 30.2596 19.3516 30.2596 19.4857 30.2596C21.7663 30.2596 24.047 30.2596 26.3164 30.2596C26.5735 30.2596 26.7524 30.1702 26.9424 30.0249C29.592 27.8672 32.152 25.5755 34.9357 23.5855C35.6624 23.0601 36.4338 22.6017 37.3505 22.4452C38.2225 22.2887 38.9827 22.557 39.6311 23.116C40.1453 23.552 40.123 24.3122 39.6311 24.86C38.0883 26.604 36.5344 28.3368 34.9804 30.0808C33.393 31.8583 31.7943 33.6247 30.2292 35.4134C29.0442 36.7661 27.5461 37.3698 25.7798 37.3921C24.3376 37.4033 22.8843 37.3921 21.4421 37.3921C18.2113 37.3921 14.9804 37.3921 11.7608 37.3921C11.526 37.3921 11.3471 37.448 11.1794 37.6269C10.3969 38.4318 9.59195 39.2032 8.80939 40.0081C8.59698 40.2205 8.49637 40.1982 8.30632 39.9969C5.58972 37.2691 2.87311 34.5414 0.145333 31.8136C0.100615 31.7689 0.0558972 31.7241 0 31.6906C0 31.6683 0 31.6347 0 31.6124ZM38.4572 24.0215C37.63 23.6191 36.9592 23.9321 36.322 24.3345C35.4388 24.8823 34.6227 25.5419 33.8178 26.2015C31.6825 27.9567 29.5584 29.7119 27.4343 31.467C27.3002 31.5788 27.166 31.6906 26.9648 31.6906C24.3823 31.6794 21.8111 31.6906 19.2286 31.6794C18.7479 31.6794 18.3119 31.5453 17.9318 31.2323C17.2051 30.6509 16.9704 29.7454 17.2834 28.7616C17.5517 27.9343 18.2895 27.3977 19.2174 27.3977C20.7155 27.3865 22.2135 27.3977 23.7116 27.3977C24.2482 27.3977 24.7401 27.2747 25.1761 26.9617C25.981 26.3804 25.9027 25.3183 25.0307 24.8488C24.5724 24.6029 24.0693 24.547 23.5551 24.5358C22.2582 24.5246 20.9503 24.5358 19.6534 24.5134C18.692 24.5022 17.7753 24.3234 16.9033 23.8985C16.2214 23.5632 15.517 23.3172 14.7568 23.2054C12.588 22.8924 10.6093 23.3508 8.99944 24.86C6.69648 27.0288 4.47177 29.2759 2.21353 31.4894C2.04584 31.6571 2.07937 31.7353 2.22471 31.8807C4.27054 33.9153 6.31638 35.9612 8.35103 38.007C8.51873 38.1747 8.60816 38.197 8.77585 38.007C9.33482 37.4257 9.92733 36.8667 10.4751 36.2854C10.7099 36.0394 10.9447 35.9388 11.28 35.9388C15.8524 35.95 20.4136 35.95 24.986 35.9388C25.4779 35.9388 25.981 35.9388 26.4617 35.8717C27.412 35.7487 28.2728 35.3798 28.9324 34.6643C31.2353 32.1154 33.5048 29.5442 35.7965 26.9729C36.6797 26.0226 37.5517 25.0388 38.4572 24.0215Z" fill="#F7F7F3"/>
<path d="M29.1224 0.332275C29.5472 2.82529 29.8826 5.2624 28.8206 7.6548C28.1833 9.08577 27.3002 10.3155 25.8357 11.0198C25.4779 11.1875 25.109 11.3105 24.7177 11.3105C24.5053 11.3105 24.4047 11.3776 24.3712 11.6235C24.0917 13.5687 23.9687 15.5363 23.8793 17.4927C23.8793 17.5262 23.8904 17.571 23.9016 17.6716C24.2929 17.2356 24.673 16.8555 25.0866 16.5089C25.232 16.3971 25.1425 16.2406 25.1314 16.1064C24.9078 13.7811 26.73 11.5788 29.2119 11.78C30.2627 11.8583 31.1459 12.4061 31.9955 12.9986C32.6998 13.4905 33.3482 14.0606 34.0861 14.4966C34.1867 14.5525 34.2538 14.6084 34.1532 14.7314C33.3482 15.6928 32.8787 16.8778 32.0514 17.8281C30.8888 19.1696 29.223 19.7062 27.7585 19.2031C27.2107 19.0131 26.7188 18.7113 26.3164 18.2976C26.1599 18.1411 26.0816 18.1523 25.9251 18.2976C25.2767 18.9125 24.7513 19.6168 24.3823 20.4329C24.1811 20.8912 23.8904 21.2602 23.3874 21.4055C22.4483 21.6626 21.5651 20.9919 21.5987 19.9634C21.6993 17.0902 21.7775 14.2171 22.2471 11.3664C22.303 11.0645 22.2582 10.8857 21.9452 10.7291C20.1677 9.81243 19.2063 8.3591 19.2286 6.34681C19.251 4.24508 20.3354 2.80293 22.1912 1.91975C23.3315 1.37196 24.5724 1.21545 25.8133 1.07012C26.5959 0.980682 27.3896 0.947144 28.1722 0.768273C28.5187 0.678838 28.8318 0.567043 29.1224 0.332275ZM25.6121 4.05502C24.7289 5.7543 24.3823 7.56537 24.3712 9.44351C24.3712 9.95776 24.3823 9.96894 24.8854 9.83479C25.7127 9.6112 26.294 9.06341 26.7747 8.40382C28.0604 6.60393 28.2951 4.58046 27.9933 2.45637C27.9709 2.26632 27.8927 2.26632 27.7362 2.28868C27.166 2.36693 26.5959 2.41165 26.0257 2.47873C24.9525 2.6017 23.8793 2.71349 22.8843 3.16067C21.5875 3.742 20.7378 4.68107 20.6596 6.14558C20.5925 7.43121 21.0285 8.51562 22.2135 9.20874C22.4818 9.36525 22.5266 9.34289 22.5936 9.05223C22.8619 7.75542 23.2644 6.5145 24.0134 5.41892C24.4159 4.82641 24.9078 4.32333 25.6121 4.05502ZM30.2068 15.0444C30.1845 15.145 30.1062 15.1338 30.0503 15.145C28.9659 15.458 27.9821 15.9835 27.1101 16.6878C26.9871 16.7884 26.9089 16.8331 27.0542 17.012C28.038 18.1411 29.3348 18.2641 30.5087 17.3362C31.2689 16.7325 31.6713 15.8829 32.1632 15.0891C32.2415 14.9661 32.1744 14.8991 32.085 14.832C31.3695 14.2954 30.654 13.7476 29.8267 13.3787C28.1722 12.652 26.3499 14.1277 26.5959 15.9611C27.166 15.6816 27.7362 15.4469 28.3399 15.2903C28.9435 15.1338 29.5696 14.9997 30.2068 15.0444Z" fill="#F7F7F3"/>
<path d="M16.635 19.3597C15.4053 19.382 14.4438 18.7448 13.6389 17.7834C13.024 17.0567 12.5433 16.2406 12.0402 15.4245C11.8614 15.1339 11.4366 14.8656 11.5148 14.5861C11.5819 14.3401 12.0402 14.206 12.3086 14.0047C12.834 13.6135 13.3371 13.1998 13.8625 12.8309C14.9581 12.0595 16.1543 11.6235 17.5182 11.8471C20.0559 12.2607 21.5763 15.7487 19.7652 17.8281C18.9268 18.8231 17.9206 19.3597 16.635 19.3597ZM19.005 14.9997C18.7479 13.7141 17.4846 12.965 16.1878 13.2781C15.1369 13.5352 14.3656 14.2507 13.5495 14.8767C13.4489 14.955 13.4712 15.0221 13.5271 15.1115C14.0414 15.8941 14.5109 16.699 15.204 17.3474C16.322 18.4094 18.3678 18.0517 19.0609 16.2294C19.128 16.0618 19.0945 15.9835 18.9268 15.9052C17.9206 15.391 16.8698 15.0556 15.7406 14.9773C15.6288 14.9662 15.5282 14.9773 15.4835 14.8432C16.6685 14.6196 17.8312 14.7426 19.005 14.9997Z" fill="#F7F7F3"/>
</g>
<defs>
<clipPath id="clip0_116_1255">
<rect width="40" height="39.8211" fill="white" transform="translate(0 0.332275)"/>
</clipPath>
</defs>
</svg>
