<svg width="22" height="23" viewBox="0 0 22 23" fill="none" xmlns="http://www.w3.org/2000/svg">
<path fill-rule="evenodd" clip-rule="evenodd" d="M6.465 0.398275C7.638 0.344275 8.012 0.332275 11 0.332275C13.988 0.332275 14.362 0.345275 15.534 0.398275C16.706 0.451275 17.506 0.638275 18.206 0.909275C18.939 1.18628 19.604 1.61928 20.154 2.17928C20.714 2.72828 21.146 3.39228 21.422 4.12628C21.694 4.82628 21.88 5.62628 21.934 6.79628C21.988 7.97128 22 8.34528 22 11.3323C22 14.3203 21.987 14.6943 21.934 15.8673C21.881 17.0373 21.694 17.8373 21.422 18.5373C21.146 19.2714 20.7133 19.9365 20.154 20.4863C19.604 21.0463 18.939 21.4783 18.206 21.7543C17.506 22.0263 16.706 22.2123 15.536 22.2663C14.362 22.3203 13.988 22.3323 11 22.3323C8.012 22.3323 7.638 22.3193 6.465 22.2663C5.295 22.2133 4.495 22.0263 3.795 21.7543C3.06092 21.4782 2.39582 21.0455 1.846 20.4863C1.28638 19.9369 0.853315 19.2722 0.577 18.5383C0.306 17.8383 0.12 17.0383 0.066 15.8683C0.012 14.6933 0 14.3193 0 11.3323C0 8.34428 0.013 7.97028 0.066 6.79828C0.119 5.62628 0.306 4.82628 0.577 4.12628C0.853723 3.39236 1.28712 2.72759 1.847 2.17828C2.39604 1.61878 3.06047 1.18572 3.794 0.909275C4.494 0.638275 5.294 0.452275 6.464 0.398275H6.465ZM15.445 2.37828C14.285 2.32528 13.937 2.31428 11 2.31428C8.063 2.31428 7.715 2.32528 6.555 2.37828C5.482 2.42728 4.9 2.60628 4.512 2.75728C3.999 2.95728 3.632 3.19428 3.247 3.57928C2.88205 3.93433 2.60118 4.36656 2.425 4.84428C2.274 5.23228 2.095 5.81428 2.046 6.88728C1.993 8.04728 1.982 8.39528 1.982 11.3323C1.982 14.2693 1.993 14.6173 2.046 15.7773C2.095 16.8503 2.274 17.4323 2.425 17.8203C2.601 18.2973 2.882 18.7303 3.247 19.0853C3.602 19.4503 4.035 19.7313 4.512 19.9073C4.9 20.0583 5.482 20.2373 6.555 20.2863C7.715 20.3393 8.062 20.3503 11 20.3503C13.938 20.3503 14.285 20.3393 15.445 20.2863C16.518 20.2373 17.1 20.0583 17.488 19.9073C18.001 19.7073 18.368 19.4703 18.753 19.0853C19.118 18.7303 19.399 18.2973 19.575 17.8203C19.726 17.4323 19.905 16.8503 19.954 15.7773C20.007 14.6173 20.018 14.2693 20.018 11.3323C20.018 8.39528 20.007 8.04728 19.954 6.88728C19.905 5.81428 19.726 5.23228 19.575 4.84428C19.375 4.33128 19.138 3.96428 18.753 3.57928C18.3979 3.21435 17.9657 2.93349 17.488 2.75728C17.1 2.60628 16.518 2.42728 15.445 2.37828ZM9.595 14.7233C10.3797 15.0499 11.2534 15.094 12.0669 14.848C12.8805 14.602 13.5834 14.0812 14.0556 13.3745C14.5278 12.6678 14.7401 11.8191 14.656 10.9734C14.572 10.1276 14.197 9.33725 13.595 8.73728C13.2112 8.35375 12.7472 8.06009 12.2363 7.87742C11.7255 7.69476 11.1804 7.62764 10.6405 7.68089C10.1006 7.73415 9.57915 7.90645 9.1138 8.18541C8.64845 8.46436 8.25074 8.84302 7.9493 9.29413C7.64786 9.74523 7.45019 10.2576 7.37052 10.7942C7.29084 11.3309 7.33115 11.8786 7.48854 12.3978C7.64593 12.917 7.91648 13.3949 8.28072 13.797C8.64496 14.1991 9.09382 14.5155 9.595 14.7233ZM7.002 7.33428C7.52702 6.80925 8.15032 6.39278 8.8363 6.10864C9.52228 5.8245 10.2575 5.67825 11 5.67825C11.7425 5.67825 12.4777 5.82449 13.1637 6.10864C13.8497 6.39278 14.473 6.80925 14.998 7.33428C15.523 7.8593 15.9395 8.4826 16.2236 9.16857C16.5078 9.85455 16.654 10.5898 16.654 11.3323C16.654 12.0748 16.5078 12.81 16.2236 13.496C15.9395 14.182 15.523 14.8053 14.998 15.3303C13.9377 16.3906 12.4995 16.9863 11 16.9863C9.50046 16.9863 8.06234 16.3906 7.002 15.3303C5.94166 14.2699 5.34597 12.8318 5.34597 11.3323C5.34597 9.83273 5.94166 8.39461 7.002 7.33428ZM17.908 6.52028C18.0381 6.39754 18.1423 6.24996 18.2143 6.08625C18.2863 5.92254 18.3248 5.74604 18.3274 5.56721C18.33 5.38837 18.2967 5.21082 18.2295 5.04509C18.1622 4.87935 18.0624 4.72879 17.936 4.60231C17.8095 4.47584 17.6589 4.37603 17.4932 4.30879C17.3275 4.24155 17.1499 4.20825 16.9711 4.21086C16.7922 4.21347 16.6157 4.25193 16.452 4.32397C16.2883 4.39601 16.1407 4.50017 16.018 4.63028C15.7793 4.8833 15.6486 5.2194 15.6537 5.56721C15.6588 5.91501 15.7992 6.24715 16.0452 6.49312C16.2911 6.73908 16.6233 6.8795 16.9711 6.88457C17.3189 6.88965 17.655 6.75897 17.908 6.52028Z" fill="#F7F7F3"/>
</svg>
