<svg width="40" height="41" viewBox="0 0 40 41" fill="none" xmlns="http://www.w3.org/2000/svg">
<g clip-path="url(#clip0_116_1270)">
<path d="M7.33334 18.9989C7.33334 19.3989 7.6 19.6656 8 19.6656H14.6667C15.0667 19.6656 15.3333 19.3989 15.3333 18.9989V16.3323C15.3333 15.9323 15.0667 15.6656 14.6667 15.6656H8C7.6 15.6656 7.33334 15.9323 7.33334 16.3323V18.9989ZM8.66667 16.9989H14V18.3323H8.66667V16.9989Z" fill="#F7F7F3"/>
<path d="M23.3333 24.9989V22.3323C23.3333 21.9323 23.0667 21.6656 22.6667 21.6656H8C7.6 21.6656 7.33334 21.9323 7.33334 22.3323V24.9989C7.33334 25.3989 7.6 25.6656 8 25.6656H22.6667C23.0667 25.6656 23.3333 25.3989 23.3333 24.9989ZM22 24.3323H8.66667V22.9989H22V24.3323Z" fill="#F7F7F3"/>
<path d="M8 27.6656C7.6 27.6656 7.33334 27.9323 7.33334 28.3323V30.9989C7.33334 31.3989 7.6 31.6656 8 31.6656H19.3333C19.7333 31.6656 20 31.3989 20 30.9989V28.3323C20 27.9323 19.7333 27.6656 19.3333 27.6656H8ZM18.6667 30.3323H8.66667V28.9989H18.6667V30.3323Z" fill="#F7F7F3"/>
<path d="M3.33333 36.3323H24.4667C24.8667 37.3989 25.6 38.3323 26.4667 38.9989H26C25.6 38.9989 25.3333 39.3323 25.3333 39.6656C25.3333 39.9989 25.6 40.3323 26 40.3323H34.6667C35.0667 40.3323 35.3333 40.0656 35.3333 39.6656C35.3333 39.2656 35.0667 38.9989 34.6667 38.9989H34.2C35.6 37.9323 36.4667 36.3323 36.6 34.5989C40.4667 34.5323 41.6 27.5989 36.6 29.1989C36.6 28.5989 36.8 27.6656 35.9333 27.5989H24.6667C24.2667 27.5989 24 27.8656 24 28.2656C24 28.9989 23.9333 34.3323 24.0667 34.9323H5.33333V2.99894C5.33333 2.26561 5.93333 1.66561 6.66667 1.66561H30.6667C31.4 1.66561 32 2.26561 32 2.99894V12.9989C32 13.3989 32.3333 13.6656 32.6667 13.6656C33 13.6656 33.3333 13.3989 33.3333 12.9989V2.99894C33.3333 1.53228 32.1333 0.332275 30.6667 0.332275H6.66667C5.2 0.332275 4 1.53228 4 2.99894V18.3323H0.666667C0.266667 18.3323 0 18.5989 0 18.9989V32.9989C0 34.8656 1.46667 36.3323 3.33333 36.3323ZM36.9333 30.5989C37.4 30.3989 37.9333 30.3323 38.4667 30.3989C39.2667 31.5989 37.6667 33.3323 36.7333 33.3323V30.6656C36.7333 30.5989 36.8 30.5989 36.9333 30.5989ZM25.3333 28.9989H35.3333V33.9989C35.3333 36.7323 33.0667 38.9989 30.3333 38.9989C27.6 38.9989 25.3333 36.7323 25.3333 33.9989V28.9989ZM1.33333 19.6656H4V34.9989H3.33333C2.2 34.9989 1.33333 34.1323 1.33333 32.9989V19.6656Z" fill="#F7F7F3"/>
<path d="M31.6 15.1323C31.3333 15.3323 31.2667 15.7989 31.4667 16.0656C32.4667 17.4656 32.2 19.3989 30.8667 20.5323C27.7333 23.6656 30.2 26.1323 30.2 26.1323C30.4667 26.3989 30.8667 26.3989 31.1333 26.1323C31.4 25.8656 31.4 25.4656 31.1333 25.1989C31.0667 25.1323 29.6 23.6656 31.8 21.4656C33.6 19.8656 33.9333 17.1989 32.5333 15.2656C32.3333 14.9989 31.8667 14.9323 31.6 15.1323Z" fill="#F7F7F3"/>
<path d="M33.0667 24.9989C33.3333 26.0656 33.9333 26.6656 34.6 26.1323C34.8667 25.8656 34.8667 25.4656 34.6 25.1989C34.4667 25.0656 34.4 24.9323 34.4 24.7323C34.3333 24.1989 34.6 23.6656 35 23.3323C36.2 22.2656 36.4 20.5323 35.4667 19.2656C35.2667 18.9989 34.8 18.9323 34.5333 19.1323C34.2667 19.3323 34.2 19.7323 34.4 20.0656C34.9333 20.7989 34.7333 21.7989 34.0667 22.3989C33.2667 22.9989 32.8667 23.9989 33.0667 24.9989Z" fill="#F7F7F3"/>
<path d="M28.4 19.2656C28.2 18.9989 27.7333 18.9323 27.4667 19.1323C27.2 19.3323 27.1333 19.7323 27.3333 20.0656C27.8667 20.7989 27.6667 21.7989 27 22.3989C26.2667 23.0656 25.8667 23.9989 26 24.9989C26.2667 26.0656 26.8667 26.6656 27.5333 26.1323C27.8 25.8656 27.8 25.4656 27.5333 25.1989C27.4 25.0656 27.3333 24.9323 27.3333 24.7323C27.3333 24.1989 27.5333 23.6656 28 23.3323C29.1333 22.2656 29.3333 20.5323 28.4 19.2656Z" fill="#F7F7F3"/>
<path d="M28.6667 11.4656H9.06667C8.66667 11.4656 8.4 11.199 8.4 10.799V6.1323C8.4 5.7323 8.66667 5.46564 9.06667 5.46564H28.6667C29.0667 5.46564 29.3333 5.7323 29.3333 6.1323V10.799C29.3333 11.199 29 11.4656 28.6667 11.4656ZM9.73334 10.1323H28V6.79897H9.73334V10.1323Z" fill="#F7F7F3"/>
</g>
<defs>
<clipPath id="clip0_116_1270">
<rect width="40" height="40" fill="white" transform="translate(0 0.332275)"/>
</clipPath>
</defs>
</svg>
